<mxfile host="65bd71144e">
    <diagram id="Rn8AVgWHZ9IMjyHzyGus" name="Page-1">
        <mxGraphModel dx="1072" dy="288" grid="1" gridSize="10" guides="1" tooltips="1" connect="1" arrows="1" fold="1" page="1" pageScale="1" pageWidth="850" pageHeight="1100" math="0" shadow="0">
            <root>
                <mxCell id="0"/>
                <mxCell id="1" parent="0"/>
                <mxCell id="2" value="User" style="swimlane;whiteSpace=wrap;html=1;" parent="1" vertex="1">
                    <mxGeometry x="80" y="80" width="200" height="340" as="geometry"/>
                </mxCell>
                <mxCell id="3" value="" style="ellipse;html=1;shape=startState;fillColor=#000000;strokeColor=#ff0000;" parent="2" vertex="1">
                    <mxGeometry x="85" y="40" width="30" height="30" as="geometry"/>
                </mxCell>
                <mxCell id="4" value="" style="edgeStyle=orthogonalEdgeStyle;html=1;verticalAlign=bottom;endArrow=open;endSize=8;strokeColor=#ff0000;entryX=0.5;entryY=0;entryDx=0;entryDy=0;" parent="2" source="3" target="5" edge="1">
                    <mxGeometry relative="1" as="geometry">
                        <mxPoint x="100" y="130" as="targetPoint"/>
                    </mxGeometry>
                </mxCell>
                <mxCell id="17" value="" style="edgeStyle=none;html=1;" edge="1" parent="2" source="5" target="7">
                    <mxGeometry relative="1" as="geometry"/>
                </mxCell>
                <mxCell id="5" value="Pilih Regulatory Compliance pada sidebar" style="rounded=1;whiteSpace=wrap;html=1;" parent="2" vertex="1">
                    <mxGeometry x="50" y="110" width="100" height="50" as="geometry"/>
                </mxCell>
                <mxCell id="7" value="Pilih SKHP" style="rounded=1;whiteSpace=wrap;html=1;" parent="2" vertex="1">
                    <mxGeometry x="50" y="200" width="100" height="50" as="geometry"/>
                </mxCell>
                <mxCell id="9" value="Sistem" style="swimlane;whiteSpace=wrap;html=1;" parent="1" vertex="1">
                    <mxGeometry x="280" y="80" width="200" height="340" as="geometry"/>
                </mxCell>
                <mxCell id="19" value="" style="edgeStyle=none;html=1;" edge="1" parent="9" source="10" target="13">
                    <mxGeometry relative="1" as="geometry"/>
                </mxCell>
                <mxCell id="10" value="Menampilkan halaman SKHP" style="rounded=1;whiteSpace=wrap;html=1;" parent="9" vertex="1">
                    <mxGeometry x="50" y="200" width="100" height="50" as="geometry"/>
                </mxCell>
                <mxCell id="13" value="" style="ellipse;html=1;shape=endState;fillColor=#000000;strokeColor=#ff0000;" parent="9" vertex="1">
                    <mxGeometry x="85" y="280" width="30" height="30" as="geometry"/>
                </mxCell>
                <mxCell id="18" value="" style="edgeStyle=none;html=1;" edge="1" parent="1" source="7" target="10">
                    <mxGeometry relative="1" as="geometry"/>
                </mxCell>
            </root>
        </mxGraphModel>
    </diagram>
</mxfile>